# xmcd
#
# Track frame offsets: 
#        150
#        23905
#        39292
#        59715
#        81167
#        102822
#        120457
#        141280
#        162895
#        181277
#
# Disc length: 2675 seconds
#
# Revision: 2
# Processed by: cddbd v1.5.2PL0 Copyright (c) Steve Scherf et al.
# Submitted via: ExactAudioCopy v0.95b4
#
DISCID=7e0a710a
DTITLE=Bobby Blue Bland - Midnight Run
DYEAR=1989
DGENRE=Blues
TTITLE0=You've Got To Hurt Before You Heal
TTITLE1=Lay Love Aside
TTITLE2=Kiss Me To The Music
TTITLE3=Keep It A Secret
TTITLE4=Take Off Your Shoes
TTITLE5=Ain't No Sunshine When She's Gone
TTITLE6=If I Don't Get Involved
TTITLE7=I'm Not Ashamed To Sing The Blues
TTITLE8=Midnight Run
TTITLE9=Starting All Over Again
EXTD=
EXTT0=
EXTT1=
EXTT2=
EXTT3=
EXTT4=
EXTT5=
EXTT6=
EXTT7=
EXTT8=
EXTT9=
PLAYORDER=
